# xmcd
#
# Track frame offsets:
# 150
# 17580
# 33135
# 48235
# 64745
# 78450
# 89907
# 106047
# 122895
# 139435
# 155402
# 170050
#
# Disc length: 2429 seconds
#
#
# Revision: 0
# Processed by: cddbd v1.5.2PL0 Copyright (c) Steve Scherf et al.
# Submitted via: Nero 7, 11, 10, 0 
#
DISCID=9e097b0c
DTITLE=Shakin' Snakes - Snake Skin
DYEAR=1993
DGENRE=Blues
TTITLE0=Searching For My Love
TTITLE1=Something Is Worrying Me
TTITLE2=Mathilda
TTITLE3=Let Me Down Easy
TTITLE4=Buddy Buddy Friends
TTITLE5=She's All Right
TTITLE6=I'm To Blame
TTITLE7=Hung Down Head
TTITLE8=Insane Asylum
TTITLE9=Don't Stay Out All Night
TTITLE10=Forty-Four
TTITLE11=Double Trouble
EXTD=
EXTT0=Searching For My Love
EXTT1=Something Is Worrying Me
EXTT2=Mathilda
EXTT3=Let Me Down Easy
EXTT4=Buddy Buddy Friends
EXTT5=She's All Right
EXTT6=I'm To Blame
EXTT7=Hung Down Head
EXTT8=Insane Asylum
EXTT9=Don't Stay Out All Night
EXTT10=Forty-Four
EXTT11=Double Trouble
PLAYORDER=
